<?xml version="1.0" encoding="UTF-8"?>
<svg width="145px" height="91px" viewBox="0 0 145 91" version="1.1" xmlns="http://www.w3.org/2000/svg" xmlns:xlink="http://www.w3.org/1999/xlink">
    <!-- Generator: Sketch 48.2 (47327) - http://www.bohemiancoding.com/sketch -->
    <title>Shape</title>
    <desc>Created with Sketch.</desc>
    <defs></defs>
    <g id="Desktop" stroke="none" stroke-width="1" fill="none" fill-rule="evenodd" transform="translate(-636.000000, -111.000000)">
        <g id="ffeodzk8KH" transform="translate(636.000000, 111.000000)" fill="#FFFFFF" fill-rule="nonzero">
            <g id="Group" transform="translate(72.500000, 45.500000) scale(-1, 1) rotate(-180.000000) translate(-72.500000, -45.500000) ">
                <path d="M29.7279116,89.3822222 C21.1967871,86.5848148 16.625502,78.6307407 14.2670683,62.4866667 L13.5973896,57.8018519 L10.4236948,55.847037 C6.23092369,53.2518519 1.95080321,48.3311111 0.757028112,44.7585185 C-1.74698795,37.1077778 2.41666667,26.3225926 8.64759036,24.3340741 C10.4236948,23.7948148 10.9186747,23.1881481 11.8795181,20.4581481 C16.1014056,8.56074074 33.9789157,1.17962963 46.7319277,6.10037037 C48.8283133,6.90925926 51.565261,8.42592593 52.8172691,9.43703704 L55.0592369,11.3581481 L57.6797189,7.54962963 C64.4929719,-2.32555556 80.9146586,-2.52777778 89.3293173,7.21259259 C90.1736948,8.19 90.4066265,8.12259259 92.0953815,6.20148148 C98.8212851,-1.41555556 109.885542,0.943703704 121.095382,12.402963 C127.268072,18.7392593 126.947791,18.4696296 130.5,20.2559259 C141.651606,25.8507407 147.795181,38.3885185 143.165663,46.1740741 C141.738956,48.6344444 137.487952,50.9262963 135.333333,50.4544444 C134.081325,50.1848148 133.935743,50.3196296 134.285141,51.5666667 C139.380522,70.0025926 123.424699,76.6759259 102.926707,64.6774074 L100.772088,63.4303704 L100.10241,66.2277778 C96.4919679,81.7651852 68.2198795,85.7085185 64.2309237,71.2496296 C63.939759,70.1037037 63.6485944,70.4407407 62.5712851,73.2381481 C57.5923695,86.1803704 42.5682731,93.5614815 29.7279116,89.3822222 Z" id="Shape"></path>
            </g>
        </g>
    </g>
</svg>