<svg version="1" xmlns="http://www.w3.org/2000/svg" width="773.333" height="773.333" viewBox="0 0 580.000000 580.000000"><path d="M272 153.9c-5.2 1.6-14.5 4.4-20.6 6.4-8.6 2.8-13.9 3.9-23.6 4.6-23.8 2-31.8 5.1-43.8 17-12.7 12.6-19.2 23.8-26.5 45.5-15.2 45.7-13.5 71.3 7 105.1 13.1 21.6 26.8 37.6 42.9 50.4 30 23.7 57.5 37 98.6 47.6 8 2 19.7 5.2 26 7 16.6 4.7 28.1 6.4 48.5 7.1 16.2.6 18.2.9 20.2 2.7 2.5 2.3 4.3 1.6 2.3-.8-1.7-2.1.4-2 10.5.4 4.4 1.1 8.4 1.6 8.9 1.1.4-.4-1.7-1.4-4.8-2.1-3.1-.7-5.6-1.5-5.6-1.9 0-.4-2.9-1-6.4-1.2-5.2-.5-7.1-1.1-10.3-3.6-2.1-1.7-6.3-4.5-9.3-6.1l-5.5-3.1h5.5c10 0 22.3-2 37-5.9 8-2.2 16.4-4.2 18.8-4.6 2.3-.4 4.2-1.1 4.2-1.6 0-1.3-1.9-1.1-10.4.7-7 1.6-7.6 1.6-12.1-.2-3.7-1.4-4.4-1.9-3-2.4 2.5-.9.9-1.7-5-2.4-54-6.6-73.5-9.7-80.5-12.5-1.7-.7 8.4-1 32.5-1.2 25.2-.2 31.9-.4 24-.9-6-.4-23.1-.8-37.9-.9l-26.8-.1-21.2-6.9c-11.6-3.8-24.2-8.2-28.1-9.8-3.8-1.6-15.1-5.6-25-8.7-22.1-7.1-28.5-10.4-40.6-20.8-18.3-15.9-26.2-24.8-30.6-34.9l-2.1-4.7 33.7.5c18.5.2 50 0 70.1-.5 33.4-.9 37.2-1.2 44.5-3.3 5.3-1.5 12-2.4 20-2.8 10.4-.5 12.7-1 17.7-3.4 11-5.4 17-14.8 20.4-32 .9-4.5 2.4-10.8 3.4-13.9 2.6-8.1 4.3-23.9 3.5-32.7-.4-4.4-2-11-4.1-16.5-2.7-7.2-3.4-10.6-3.4-16.2 0-5.9-.5-8.1-3.1-13.2-3.7-7.6-13-16.3-21.4-20.3-12.4-5.8-15.3-6.2-48.5-6.5l-30.5-.3-9.5 2.8zm72.1.5c12.3 2.8 19.3 6.3 26.8 13.2 8.3 7.7 12.1 14.5 12.1 21.7v4.9l-4.6-6.1c-2.5-3.3-7.5-8.7-11.1-12-7.1-6.5-13.1-9.4-22.3-10.6-3-.3-9.6-2-14.7-3.6-12.3-3.8-29.4-5.5-41.2-4-4.8.6-12.3 1.1-16.7 1.1-4.3 0-9.6.5-11.7 1.1-2.2.6-4.1.9-4.3.6-.3-.3 19.8-5.9 29.1-8.1 4.9-1.2 52.2.3 58.6 1.8zm-24.6 8.1l5 1.3-5 .1c-2.7 0-7.2-.6-10-1.3l-5-1.4h5c2.8 0 7.3.6 10 1.3zm-26.2.2c-3.5.2-9.1.2-12.5 0-3.5-.2-.7-.3 6.2-.3s9.7.1 6.3.3zm-28.4.7c-.2.2-2.6.6-5.4.9-3.4.4-4.2.3-2.5-.3 2.5-.8 8.7-1.3 7.9-.6zm17.9 2.8c-3.6.7-7.9.7-12 0-6-.9-5.8-.9 5.7-.9 11 0 11.5 0 6.3.9zm40.9 3.5c5.6 2 10.1 3.9 9.8 4.1-.2.2-3.9-.4-8.2-1.3-4.3-.9-15.1-2-24.1-2.4-16.3-.8-20.3-1.5-14.1-2.5 6.3-1.1 9.4-1.3 17.9-1.5 7.6-.1 9.6.3 18.7 3.6zm18.2-.7c9.4 4.5 15.1 9 24.6 19.7 8 8.9 15.5 21.3 15.5 25.2-.1 1.3-.3 1.2-1.2-.4-3.9-6.8-14.7-20-21-25.5-7.5-6.7-21.4-15.3-31.5-19.5l-5.8-2.4 6.5-.1c5.2 0 7.8.6 12.9 3zm-121.1.5c-2 1.4-6.1 3.4-9 4.5-6.4 2.4-18.1 9.8-26.4 16.7-9 7.5-11.6 12.1-14.9 26-1.5 6.5-4.5 16.4-6.6 22-2.1 5.6-4.4 13.5-5 17.5-.6 4-1.8 10-2.7 13.3-1.3 4.4-1.7 10.1-1.7 21 0 14.2.2 15.4 2.8 21.5 3.9 9.1 4.2 10.5.8 3.5-1.7-3.3-4.2-10.1-5.7-15-2.4-7.9-2.7-10.7-2.7-22.5 0-14.9 1.3-22.1 7-41 8-26.5 14.6-39.2 27.3-52.1 10.8-11 17.9-14.7 32.5-16.9 8-1.2 8.2-1.1 4.3 1.5zm24.7-1c-1.6.8-5 1.4-7.5 1.4l-4.5-.1 4.5-1.3c2.5-.7 5.9-1.3 7.5-1.3h3l-3 1.3zm-19.5 1c-1.4.8-2.9 1.4-3.5 1.4-.5 0 .1-.6 1.5-1.4 1.4-.8 3-1.4 3.5-1.4.6 0-.1.6-1.5 1.4zm26-.5c-.8.5-2.2.9-3 .9-1 0-.8-.3.5-.9 2.7-1.2 4.3-1.2 2.5 0zm17 0c-.8.5-4.2 1-7.5 1-4.2 0-5.6-.3-4.5-1 .8-.5 4.2-1 7.5-1 4.2 0 5.6.3 4.5 1zm87.5 1.5c7 3 26.5 24.1 26.5 28.8 0 .5-4.2-3.3-9.2-8.5-5.1-5.2-13.1-12.3-17.8-15.7-4.7-3.5-8.7-6.6-9-6.8-.9-1 5.4.5 9.5 2.2zm-120.6 1.9c-.2.2-4.4 2-9.3 4-4.8 2-11.6 5.1-15 6.8-5.4 2.7-5.9 2.8-4.1.8 6.4-7.2 16.1-11.9 24.4-12 2.4 0 4.2.2 4 .4zm52.8.3c-2 .2-5.2.2-7 0-1.7-.2 0-.4 3.8-.4 3.9 0 5.3.2 3.2.4zm23 6c23.3 9.2 39.5 25.6 43.4 44.1 1.4 6.9.7 21.3-1.6 29.6-4 15.1-13.4 27.7-27.1 36.2-12.1 7.5-11.2 7.4-60.8 7.4-24.3 0-53.3.3-64.6.8l-20.5.7 12 .6c6.6.4 34.3.8 61.5.9 30.8.2 46.3.6 41 1.1-4.7.4-33.3.7-63.7.8l-55.2.1-.7-3.5c-.3-2-.3-7.5 0-12.3 1-12.5 8.6-59.2 10.2-62.3 4.2-8.2 16.3-19.7 34.8-32.9 9.4-6.7 14.8-9.3 28.6-13.5 8.3-2.5 9.1-2.5 30.6-2.1l22 .4 10.1 3.9zm26.5.7c9.3 4 15.7 9.7 22.7 19.9 5.1 7.5 11.1 21 11.1 25.1 0 6.3-3 18.7-6.7 27.6-5.3 12.9-14 28.7-17.1 30.8-2.7 2-17.2 7.5-17.8 6.9-.2-.2 2-2.1 4.8-4.2 6.7-5.1 12.3-12.3 16.5-21 4.8-10.1 6.5-19.6 6.1-33.6-.3-11.3-.4-11.8-4.5-20-6.8-13.6-20.9-26.2-36.6-32.6-3.4-1.4-6.4-2.7-6.7-3-.3-.3 4-.3 9.5-.1 8.8.4 11.1 1 18.7 4.2zM236 177.5c0 .2-.9.9-2.1 1.5-2.9 1.6-14.9 6.1-14.9 5.6 0-.2 1.7-1.4 3.8-2.6 5.6-3.4 13.2-6 13.2-4.5zm-31.5 6.6c-2.8 2.8-9.6 8.2-15.2 12-5.6 3.9-11.1 8.4-12.2 10.2-1.1 1.8-2.1 2.7-2.1 2.1 0-3.3 10.6-14.7 20.1-21.5 3.2-2.2 13-7.8 13.9-7.9.2 0-1.8 2.3-4.5 5.1zm12.5-.6c0 .7-10.3 6.5-11.5 6.5-.5-.1 1.7-1.6 5-3.5 6.4-3.7 6.5-3.8 6.5-3zm4.9 2.9c-.2.2-4.2 3.2-8.9 6.6-4.7 3.5-12.6 10.4-17.6 15.4l-9.2 9.1 2-5c1.1-2.8 3.1-6.3 4.6-7.8 5.1-5.3 17.2-14.2 22.4-16.4 4.9-2.1 7.7-2.8 6.7-1.9zm-18.9 6.9c0 .1-2.1 2.1-4.7 4.2-4.8 4-4.8 4-2.5.8 1.3-1.8 3.1-3.7 4-4.3 1.7-.9 3.2-1.3 3.2-.7zm179.9 13.2c.1 2.7-.3 2.3-3.5-3.5-2-3.6-4.1-7.2-4.8-8-.6-.9 1 .7 3.6 3.5 3.4 3.6 4.7 5.8 4.7 8zm-198.6-.2c-3.8 4.5-7.6 9.4-8.5 10.7l-1.8 2.5 1-2.8c1.9-5.4 3.9-8.3 9.3-13.5 3.1-2.8 5.8-5.2 6.1-5.2.4 0-2.4 3.7-6.1 8.3zm186.7 1.1c0 1.2-.5.7-1.9-2.4-1.1-2.4-1.1-2.4.3-.6.9 1.1 1.6 2.4 1.6 3zm-182-3.1c0 .2-1 1.2-2.2 2.3l-2.3 1.9 1.9-2.3c1.8-2.1 2.6-2.7 2.6-1.9zm188.9 11.3c4 10.5 3.7 20.1-.9 37.2-1.4 5.3-3.2 9.1-5.1 11.3l-3 3.4 2.6-5.2c4-8.2 5.7-17.5 5.2-27.3-.5-7.9-2-20.3-3.2-26-.5-2.4-.5-2.4 1-.6.8 1.1 2.4 4.3 3.4 7.2zm9.8 4.7l.3 10.2-1.5-5c-1.8-6.5-2-18.4-.2-16.7.8.8 1.3 5 1.4 11.5zm-206-2.2c-1.3 3-3.4 8.4-4.6 12.1-3.1 9.4-4.4 9.7-3.5.7.6-6.8 1.1-7.9 5.2-13.2 2.5-3.1 4.7-5.6 4.9-5.4.2.2-.7 2.8-2 5.8zm1.3 4.4c-1.5 3.9-2.3 2.5-.8-1.6.6-1.8 1.3-2.9 1.5-2.3.2.6-.1 2.4-.7 3.9zm207.7 9.7c-.2 1.8-.4.6-.4-2.7 0-3.3.2-4.8.4-3.3s.2 4.2 0 6zM178.4 250c-1.9 11.3-3.8 23.6-4.3 27.5-.7 6.1-.9 4.8-1-9.7-.1-14.2.2-18 2-24.5 1.8-6.8 5.6-15 6.4-14.1.2.2-1.2 9.5-3.1 20.8zm206.6.8c-1.3 10.3-5.2 20.8-9.1 25.3l-3 3.4 2.5-4c3.1-5.1 6.6-16.5 6.6-21.9.1-2.2.7-6.8 1.5-10.1s1.6-8 1.7-10.5c.1-3 .3-2.2.6 2.5.1 3.8-.2 10.7-.8 15.3zm-214.9-7.1c-.9 1.6-1 1.4-1.1-.8 0-1.4.3-4.8.8-7.5l.7-4.9.3 5.7c.2 3.2-.2 6.6-.7 7.5zm204.6-3c-.2 2.1-.4.6-.4-3.2 0-3.9.2-5.5.4-3.8.2 1.8.2 5 0 7zm-2.3 2.5c-1.2 13-6.5 24.8-14.5 32.5-3.2 3.1-3 2.4 3.8-11.5 4-8 8-17.7 9-21.4 1-3.7 1.9-6.8 2.1-6.8.2 0 0 3.3-.4 7.2zm-205.9 6.7c-.8 1.7-1.7 3.1-1.9 3.1-.4 0 .3-4.5 1.7-10.5l1.2-5 .3 4.7c.2 2.9-.3 5.9-1.3 7.7zm223.2-5.2c-.3 1-.5.4-.5-1.2 0-1.7.2-2.4.5-1.8.2.7.2 2.1 0 3zM170.1 255c-.9 2.3-1 2.3-1-1.2-.1-2 .2-4.5.7-5.5.6-1.4.8-1.2 1 1.2.2 1.7-.1 4.2-.7 5.5zm-8.6 1.5c-.3 2.6-.9 4.5-1.2 4.2-.2-.3-.1-2.6.2-5.2.4-2.5 1-4.4 1.2-4.1.3.3.2 2.6-.2 5.1zm6 3.1c-.4 4.2-1.3 9.7-2 12.2l-1.3 4.7-.1-9.2c-.1-7 .3-9.9 1.7-12.2.9-1.7 1.9-3.1 2-3.1.2 0 .1 3.4-.3 7.6zm210.2 5.7c-2.2 6.9-3.6 9.3-8.1 14.3-6.3 7-10.9 10.3-19.1 13.9l-6 2.7 2.4-2.6c1.4-1.4 4.9-4 7.9-5.7 8.4-4.7 14.2-11.2 19.7-22.1 2.7-5.4 5.1-9.5 5.3-9.3.3.2-.7 4.2-2.1 8.8zm-207.9 35.9c-1 .6-.9.8.3.8 2 0 3.5 5 1.9 6-.7.5-.4.9 1 1.3 1.2.3 1.9 1 1.6 1.5-.3.6-.2 1.2.2 1.4.5.1 2.8 3.9 5.2 8.3l4.3 8-4.9-5.4c-2.7-3-6.3-7.2-8-9.4l-3.2-4 .4-20.6c.7-29.1 1.8-34.1 2.2-9.2.2 15.7-.1 20.6-1 21.3zm-9.8-25.7l-.7 10-.1-8.7c-.2-7.4.4-12.6 1.3-11.6.1.2-.1 4.8-.5 10.3zm210.3-5.4c-2.6 4.5-7.9 10.5-11.6 13.1l-3.2 2.3 2.4-3.3c2.6-3.7 13-15.2 13.8-15.2.2 0-.4 1.4-1.4 3.1zm12.2 5.3c-2.7 10.2-5.5 15.4-11.2 20.6-6.3 5.8-12.4 8-22.2 8h-6.6l4-2.1c6.3-3.3 26.3-17.8 28.8-20.9 1.3-1.5 3.7-4.8 5.2-7.3 1.6-2.5 3.1-4.5 3.2-4.3.2.1-.4 2.8-1.2 6zm-220 10.4c-1.1 9.2-1.8 4.8-.9-6 .8-8.6.9-9.4 1.2-4.8.2 3 .1 7.9-.3 10.8zm4.5 2.9c0 8.9-.4 13.2-1 12.2-1.7-2.9-1.2-25.9.6-25.9.2 0 .4 6.2.4 13.7zm-8 19.2c.6 2.4.9 4.5.7 4.7-.2.3-1.2-2.2-2.1-5.4-1.1-4.2-1.6-9.4-1.5-18.8l.2-12.9.8 14.1c.4 7.7 1.3 16 1.9 18.3zm193-22.4c-2.4 2.5-4.6 4.5-4.7 4.5-.9 0 3.3-5.3 5.6-7 4.1-3.1 3.9-2.4-.9 2.5zm-6 2.9c0 .9-5.5 4.3-8 5.1-1.7.4-1-.3 2-2.3 4.3-2.9 6-3.7 6-2.8zm-7 1.1c0 .3-3.2 2.1-7.2 4-4.8 2.3-8.6 3.5-11.3 3.4-3.6 0-2.8-.5 7-3.9 6.1-2.1 11.1-3.9 11.3-3.9.1-.1.2.1.2.4zm-179.3 7.7c-.2 1.3-.4.3-.4-2.2s.2-3.5.4-2.3c.2 1.3.2 3.3 0 4.5zm13-1c-.3.7-.5.2-.5-1.2s.2-1.9.5-1.3c.2.7.2 1.9 0 2.5zm178.8.4c-3.4 2.8-14.1 7.5-18.1 8l-3.9.6 3.4-2.3c1.9-1.3 7-3.5 11.5-5 9.7-3.3 9.6-3.3 7.1-1.3zm-36.7 3.1c-1 .2-2.6.2-3.5 0-1-.3-.2-.5 1.7-.5s2.7.2 1.8.5zm13.5 0c-.7.2-1.9.2-2.5 0-.7-.3-.2-.5 1.2-.5s1.9.2 1.3.5zM207 303.4c.8.2-5.6.4-14.2.5-8.7 0-15.8-.3-15.8-.7 0-.8 26.5-.5 30 .2zm114.8-.7c-1.6.2-4 .2-5.5 0-1.6-.2-.3-.4 2.7-.4s4.3.2 2.8.4zm-157.4 4.2c1.1 2.1 1.4 4.4.9 8.2l-.6 5.4-1.3-3c-1.2-2.8-1.9-13.5-.9-13.5.2 0 1.1 1.3 1.9 2.9zm86.1 0c2.4.5-11.2.9-34.2 1-25 .1-38.3-.2-38.3-.9 0-1.2 66.6-1.3 72.5-.1zm75 .6c-2.2.8-5.1 1.3-6.5 1.3-1.7 0-1-.4 2-1.3 5.9-1.7 9.7-1.7 4.5 0zm-131 2.5c-2.8 1.2-15.3 1.2-16 0-.4-.6 2.7-1 8.7-.9 6.1 0 8.6.3 7.3.9zm108.7-.3c-7.3.2-19 .2-26 0-7-.1-1-.3 13.3-.3s20 .2 12.7.3zm-127.7 25.2c2.5 4.8.9 3.7-4-3-4.1-5.6-4.5-6.6-4.5-11.8l.1-5.6 3.4 8.7c1.8 4.7 4.1 10 5 11.7zm9.9-1.9c2 2.5 5.9 8 8.6 12.2 5.9 9.3 18.2 22.4 26.6 28.4 6.8 4.9 15.7 9.1 26.3 12.5 4.4 1.4 8.9 3.8 11.7 6.1 2.5 2.1 4.2 3.8 3.6 3.8-2 0-27.6-9.2-32.5-11.7-6.3-3.1-9.2-5.2-22.7-16.4-13.8-11.5-23-21.1-26.8-28.1-3.1-5.5-10.2-21.9-10.2-23.4 0-.8 9.7 9.7 15.4 16.6zm13.1 9c3.3 3.3 5.7 6 5.4 6-.2 0-3.1-2.7-6.4-6-3.3-3.3-5.7-6-5.4-6 .2 0 3.1 2.7 6.4 6zm-13.3 10l3.1 4.5-4.7-4.5c-2.6-2.5-6.1-6.8-7.7-9.5l-3-5 4.6 5c2.5 2.7 6 7 7.7 9.5zm27.3 6.6c3.3 2.3 8.9 5.7 12.4 7.8 5.5 3.2 18.1 12.7 23.1 17.3 2.1 2-10.7-2.9-18.9-7.2-10.7-5.6-23.1-17.1-31.2-28.8-1.8-2.6-1.2-2.2 3.2 1.9 3 2.7 8.1 6.8 11.4 9zm-10.5 7.7l5.5 5-6.1-4.1c-3.3-2.2-7.3-5.7-8.9-7.9l-2.9-3.8 3.4 2.9c1.9 1.6 6 5.1 9 7.9zm14.2 18.5c8.4 5.4 23.9 13.6 33 17.2 3.2 1.3 5.6 2.6 5.3 2.8-.2.3-4.2-.7-8.7-2.1-9.1-2.9-23.7-11-33.2-18.6-6.7-5.4-22.6-21.3-22.6-22.7 0-.5 4.2 3.5 9.3 8.8 5.2 5.3 12.7 11.8 16.9 14.6zM215 378c12.7 8 28.6 19 27.5 19-.5 0-6.3-3-12.9-6.6-11.5-6.3-21.8-13.6-26.1-18.5-2.3-2.6-2.4-2.7 11.5 6.1zm39.9-2.4c7.9 2.5 18.3 6.1 23 8.1 4.7 1.9 13.8 5.3 20.1 7.4 17.9 6 5.9 3.8-14.8-2.7-19.4-6.1-35.2-12.1-42.2-16-2.5-1.4-3.6-2.2-2.5-1.9 1.1.4 8.5 2.6 16.4 5.1zm17.6 11.6l17 5.8-7-.5c-3.8-.3-11.6-1.8-17.3-3.2-9-2.2-11.1-3.2-16.5-7.5-8.8-7-8.8-7.1-.6-3.6 4.1 1.7 15.1 5.8 24.4 9zm-8.8 11.1c3.4.7 12.1 6.9 10.4 7.5-.6.2-4.8-.4-9.4-1.3-7-1.4-9.7-2.6-18.4-8.2-5.7-3.5-10.3-6.6-10.3-6.7 0-.1 5.6 1.7 12.4 4 6.8 2.2 13.7 4.4 15.3 4.7zm4.1-6.4c4.3 1.1 14.6 2.7 23.1 3.5 8.5.9 15.7 1.8 15.9 2.1 1 .9-34.3.5-37.6-.4-2.9-.9-11.4-7.1-9.7-7.1.4 0 4.1.9 8.3 1.9zm56.1 9.6c5.9 1.2 15.9 5.3 14.8 6-.1.1-13.3 0-29.3-.3l-29-.4-5.1-3.7-5.1-3.6 23.2.3c15.5.1 25.5.7 30.5 1.7zm-67.7 5.6c5.3 1.1 15.4 5.6 14.5 6.5-.4.4-20.7-6.3-21.6-7.2-.7-.7 1.6-.4 7.1.7zm96.7.5c.2.2-1 .4-2.7.4-1.7 0-3.4-.4-3.7-1-.5-.9 5.3-.3 6.4.6zm5.8 1c-.3.3-1.2.4-1.9.1-.8-.3-.5-.6.6-.6 1.1-.1 1.7.2 1.3.5zm-80.5 1.9c4.3.6 27.9 11.5 24.7 11.5-5.1-.1-21.9-5.4-28.2-9-5.3-3-6.4-4-4.2-3.6 1.7.3 5.1.7 7.7 1.1zm21.6-.8c-2.1.2-5.7.2-8 0-2.4-.2-.7-.4 3.7-.4s6.3.2 4.3.4zm45.7 1.9c1.8 1.5 1 1.6-10.5.9-24.9-1.4-28-2.2-9-2.3 14.5-.1 17.8.1 19.5 1.4zm27 .4c29.3 2.5 38.2 3.8 47.3 7.2 6.6 2.5 6.4 3.3-.3 1.2-6.1-1.8-26-4.1-45.5-5.2-11.9-.7-15.2-1.3-18.5-3.1l-4-2.1 4.5.5c2.5.3 9.9 1 16.5 1.5zm-50.3 1.6c9.7.8 20.1 1.4 23.1 1.4 4.4 0 6.2.5 9.6 3 2.3 1.7 6.9 4.6 10.4 6.6l6.2 3.6-18-.6c-23-.7-32.4-1.9-43.3-5.7-7.8-2.8-17.2-7.1-21.1-9.8-1.7-1.1 6.1-.7 33.1 1.5zm-47.6 3.5c8.8 2.5 24.3 8.7 22.2 8.9-1.5 0-27.4-8.8-31.8-10.9-2.5-1.2-3.6-1.9-2.5-1.6 1.1.4 6.6 2 12.1 3.6zm89.2 1.3c6.8 2.8 18.8 6.6 21 6.6 3.2 0-.4-1.8-9-4.4-4.9-1.5-8.8-2.9-8.8-3.3 0-1.6 42.8 2.3 50.5 4.5l3 .9-4.1 1.2c-8.4 2.3-14.2 3.1-27 3.7l-13.2.7-6.3-3.6c-15.2-8.6-17.6-11.1-6.1-6.3zm-53.3 7c5 .9 13.5 2.9 19 4.4 9.6 2.8 20.2 5.1 42.5 9.1 12.8 2.3 8.8 2.6-7.7.6-21-2.6-43.7-7.3-55.4-11.5-10.8-3.8-15.2-5.9-9.9-4.7 1.4.3 6.6 1.3 11.5 2.1zm71.5 8.2c7.6 3.9 13.5 7.8 10.5 7-1.1-.3-11.3-2.1-22.6-4.1-11.4-2-24-4.4-28-5.4l-7.4-1.8 20.5.5 20.5.5 6.5 3.3zm-32.3 6c-.3.3-1.2.4-1.9.1-.8-.3-.5-.6.6-.6 1.1-.1 1.7.2 1.3.5zm5.6 1.1c-.7.2-1.9.2-2.5 0-.7-.3-.2-.5 1.2-.5s1.9.2 1.3.5zm7 1c-.7.2-1.9.2-2.5 0-.7-.3-.2-.5 1.2-.5s1.9.2 1.3.5z"/></svg>